
      <svg data-logo="logo" xmlns="http://www.w3.org/2000/svg" viewBox="0 0 252 42">
        <g id="logogram" transform="translate(0, 1) rotate(0)"><path d="M40 13.4683C40.0001 10.7823 39.1891 8.1589 37.673 5.9417C36.1569 3.72451 34.0065 2.01688 31.5035 1.04252C29.0005 0.0681476 26.2615 -0.127534 23.6455 0.48109C21.0293 1.08971 18.658 2.47428 16.8421 4.45341H0V40H35.5601V23.3873C36.9557 22.139 38.0726 20.6104 38.8377 18.9012C39.6027 17.192 39.9988 15.3409 40 13.4683ZM33.1579 13.4683C33.1606 14.7553 32.7814 16.0143 32.0683 17.0858C31.3551 18.1572 30.3402 18.9931 29.1518 19.4874C27.9634 19.9819 26.6552 20.1127 25.3924 19.8631C24.1298 19.6137 22.9695 18.9953 22.0584 18.0861C21.1474 17.1769 20.5266 16.0179 20.2745 14.7557C20.0224 13.4936 20.1505 12.185 20.6424 10.9957C21.1343 9.80626 21.968 8.78957 23.0379 8.07423C24.108 7.35888 25.3661 6.97705 26.6532 6.97703C28.376 6.97703 30.0285 7.6605 31.2479 8.87745C32.4675 10.0944 33.1544 11.7455 33.1579 13.4683ZM28.7179 33.1579H6.84211V11.2955H13.5088C13.38 12.0128 13.3123 12.7397 13.3063 13.4683C13.31 17.007 14.7173 20.3997 17.2196 22.902C19.7217 25.4042 23.1144 26.8116 26.6532 26.8151C27.3451 26.8115 28.0355 26.7528 28.7179 26.6397V33.1579Z" fill="#394149"/></g>
        <g id="logotype" transform="translate(46, 7.5)"><path fill="#111111" d="M15.78 27.38L15.78 27.38Q13.47 27.38 11.69 26.72Q9.91 26.06 8.79 24.80Q7.66 23.55 7.33 21.77L7.33 21.77L12.10 20.95Q12.48 22.28 13.42 22.95Q14.36 23.62 15.93 23.62L15.93 23.62Q17.38 23.62 18.24 23.06Q19.09 22.51 19.09 21.65L19.09 21.65Q19.09 20.90 18.48 20.42Q17.88 19.94 16.63 19.69L16.63 19.69L13.33 19.00Q10.56 18.44 9.20 17.08Q7.83 15.72 7.83 13.58L7.83 13.58Q7.83 11.74 8.84 10.41Q9.85 9.09 11.64 8.37Q13.43 7.65 15.86 7.65L15.86 7.65Q18.12 7.65 19.77 8.28Q21.43 8.90 22.46 10.05Q23.48 11.19 23.82 12.75L23.82 12.75L19.28 13.55Q18.99 12.58 18.16 11.95Q17.33 11.33 15.93 11.33L15.93 11.33Q14.66 11.33 13.81 11.86Q12.96 12.39 12.96 13.26L12.96 13.26Q12.96 13.99 13.51 14.49Q14.07 14.99 15.42 15.26L15.42 15.26L18.85 15.94Q21.62 16.51 22.97 17.78Q24.32 19.05 24.32 21.10L24.32 21.10Q24.32 22.98 23.23 24.39Q22.13 25.80 20.21 26.59Q18.29 27.38 15.78 27.38ZM34.14 27.38L34.14 27.38Q31.22 27.38 29.10 26.18Q26.98 24.98 25.85 22.78Q24.71 20.57 24.71 17.55L24.71 17.55Q24.71 14.59 25.84 12.37Q26.97 10.15 29.04 8.90Q31.10 7.65 33.89 7.65L33.89 7.65Q35.77 7.65 37.39 8.25Q39.02 8.85 40.25 10.06Q41.48 11.26 42.17 13.07Q42.86 14.88 42.86 17.34L42.86 17.34L42.86 18.78L26.81 18.78L26.81 15.57L40.35 15.57L37.96 16.42Q37.96 14.93 37.50 13.83Q37.05 12.73 36.15 12.12Q35.26 11.52 33.92 11.52L33.92 11.52Q32.61 11.52 31.68 12.13Q30.74 12.75 30.27 13.80Q29.79 14.85 29.79 16.20L29.79 16.20L29.79 18.47Q29.79 20.13 30.34 21.26Q30.90 22.39 31.90 22.95Q32.90 23.51 34.23 23.51L34.23 23.51Q35.14 23.51 35.87 23.26Q36.61 23.00 37.13 22.50Q37.65 21.99 37.92 21.26L37.92 21.26L42.57 22.13Q42.11 23.70 40.96 24.89Q39.82 26.08 38.10 26.73Q36.38 27.38 34.14 27.38ZM44.09 1.54L49.22 1.54L49.22 27L44.09 27L44.09 1.54ZM56.43 27L51.30 27L51.30 7.89L56.43 7.89L56.43 27ZM53.86 5.40L53.86 5.40Q52.70 5.40 51.88 4.63Q51.06 3.86 51.06 2.77L51.06 2.77Q51.06 1.67 51.88 0.90Q52.70 0.13 53.86 0.13L53.86 0.13Q55.02 0.13 55.85 0.90Q56.68 1.66 56.68 2.77L56.68 2.77Q56.68 3.86 55.85 4.63Q55.02 5.40 53.86 5.40ZM63.64 15.94L63.64 15.94L63.64 27L58.51 27L58.51 7.89L63.35 7.89L63.43 12.66L63.12 12.66Q63.88 10.27 65.40 8.96Q66.93 7.65 69.36 7.65L69.36 7.65Q71.34 7.65 72.81 8.52Q74.28 9.38 75.10 11.00Q75.92 12.61 75.92 14.85L75.92 14.85L75.92 27L70.80 27L70.80 15.74Q70.80 13.96 69.88 12.95Q68.97 11.94 67.34 11.94L67.34 11.94Q66.27 11.94 65.42 12.41Q64.58 12.88 64.11 13.77Q63.64 14.66 63.64 15.94ZM76.18 7.89L87.51 7.89L87.51 11.81L76.18 11.81L76.18 7.89ZM78.81 21.86L78.81 3.35L83.94 3.35L83.94 21.41Q83.94 22.32 84.34 22.75Q84.74 23.19 85.68 23.19L85.68 23.19Q85.97 23.19 86.50 23.11Q87.03 23.04 87.30 22.97L87.30 22.97L88.04 26.81Q87.18 27.07 86.34 27.17Q85.49 27.27 84.72 27.27L84.72 27.27Q81.85 27.27 80.33 25.87Q78.81 24.47 78.81 21.86L78.81 21.86ZM97.20 27.38L97.20 27.38Q94.27 27.38 92.15 26.18Q90.04 24.98 88.90 22.78Q87.76 20.57 87.76 17.55L87.76 17.55Q87.76 14.59 88.89 12.37Q90.02 10.15 92.09 8.90Q94.15 7.65 96.94 7.65L96.94 7.65Q98.82 7.65 100.44 8.25Q102.07 8.85 103.30 10.06Q104.53 11.26 105.22 13.07Q105.91 14.88 105.91 17.34L105.91 17.34L105.91 18.78L89.86 18.78L89.86 15.57L103.40 15.57L101.01 16.42Q101.01 14.93 100.55 13.83Q100.10 12.73 99.20 12.12Q98.31 11.52 96.97 11.52L96.97 11.52Q95.66 11.52 94.73 12.13Q93.80 12.75 93.32 13.80Q92.84 14.85 92.84 16.20L92.84 16.20L92.84 18.47Q92.84 20.13 93.39 21.26Q93.95 22.39 94.95 22.95Q95.95 23.51 97.28 23.51L97.28 23.51Q98.19 23.51 98.92 23.26Q99.66 23.00 100.18 22.50Q100.70 21.99 100.97 21.26L100.97 21.26L105.62 22.13Q105.16 23.70 104.02 24.89Q102.87 26.08 101.15 26.73Q99.43 27.38 97.20 27.38ZM111.31 7.89L122.64 7.89L122.64 11.81L111.31 11.81L111.31 7.89ZM113.94 21.86L113.94 3.35L119.07 3.35L119.07 21.41Q119.07 22.32 119.47 22.75Q119.87 23.19 120.81 23.19L120.81 23.19Q121.10 23.19 121.63 23.11Q122.16 23.04 122.43 22.97L122.43 22.97L123.17 26.81Q122.31 27.07 121.47 27.17Q120.62 27.27 119.85 27.27L119.85 27.27Q116.98 27.27 115.46 25.87Q113.94 24.47 113.94 21.86L113.94 21.86ZM130.28 27.24L130.28 27.24Q128.29 27.24 126.81 26.38Q125.32 25.51 124.51 23.90Q123.70 22.28 123.70 20.04L123.70 20.04L123.70 7.89L128.82 7.89L128.82 19.16Q128.82 20.93 129.75 21.94Q130.67 22.95 132.28 22.95L132.28 22.95Q133.37 22.95 134.21 22.48Q135.04 22.01 135.51 21.11Q135.98 20.22 135.98 18.95L135.98 18.95L135.98 7.89L141.11 7.89L141.11 27L136.27 27L136.21 22.23L136.50 22.23Q135.74 24.64 134.20 25.94Q132.65 27.24 130.28 27.24ZM148.34 27L143.21 27L143.21 7.89L148.34 7.89L148.34 27ZM145.77 5.40L145.77 5.40Q144.61 5.40 143.79 4.63Q142.97 3.86 142.97 2.77L142.97 2.77Q142.97 1.67 143.79 0.90Q144.61 0.13 145.77 0.13L145.77 0.13Q146.94 0.13 147.77 0.90Q148.59 1.66 148.59 2.77L148.59 2.77Q148.59 3.86 147.77 4.63Q146.94 5.40 145.77 5.40ZM148.58 7.89L159.91 7.89L159.91 11.81L148.58 11.81L148.58 7.89ZM151.21 21.86L151.21 3.35L156.33 3.35L156.33 21.41Q156.33 22.32 156.74 22.75Q157.14 23.19 158.08 23.19L158.08 23.19Q158.37 23.19 158.90 23.11Q159.43 23.04 159.70 22.97L159.70 22.97L160.44 26.81Q159.58 27.07 158.74 27.17Q157.89 27.27 157.12 27.27L157.12 27.27Q154.25 27.27 152.73 25.87Q151.21 24.47 151.21 21.86L151.21 21.86ZM166.09 27L160.96 27L160.96 7.89L166.09 7.89L166.09 27ZM163.53 5.40L163.53 5.40Q162.36 5.40 161.54 4.63Q160.72 3.86 160.72 2.77L160.72 2.77Q160.72 1.67 161.54 0.90Q162.36 0.13 163.53 0.13L163.53 0.13Q164.69 0.13 165.52 0.90Q166.35 1.66 166.35 2.77L166.35 2.77Q166.35 3.86 165.52 4.63Q164.69 5.40 163.53 5.40ZM176.72 27.38L176.72 27.38Q173.85 27.38 171.74 26.14Q169.64 24.90 168.51 22.68Q167.37 20.47 167.37 17.53L167.37 17.53Q167.37 14.56 168.51 12.35Q169.64 10.13 171.74 8.89Q173.85 7.65 176.72 7.65L176.72 7.65Q179.61 7.65 181.70 8.89Q183.79 10.13 184.93 12.35Q186.07 14.56 186.07 17.53L186.07 17.53Q186.07 20.47 184.93 22.68Q183.79 24.90 181.70 26.14Q179.61 27.38 176.72 27.38ZM176.72 23.34L176.72 23.34Q178.09 23.34 179.01 22.58Q179.93 21.82 180.39 20.50Q180.85 19.17 180.85 17.52L180.85 17.52Q180.85 15.82 180.39 14.51Q179.93 13.19 179.01 12.44Q178.09 11.69 176.72 11.69L176.72 11.69Q175.35 11.69 174.44 12.44Q173.52 13.19 173.06 14.51Q172.60 15.82 172.60 17.52L172.60 17.52Q172.60 19.17 173.06 20.50Q173.52 21.82 174.44 22.58Q175.35 23.34 176.72 23.34ZM192.49 15.94L192.49 15.94L192.49 27L187.36 27L187.36 7.89L192.20 7.89L192.28 12.66L191.98 12.66Q192.73 10.27 194.26 8.96Q195.79 7.65 198.21 7.65L198.21 7.65Q200.20 7.65 201.67 8.52Q203.14 9.38 203.96 11.00Q204.78 12.61 204.78 14.85L204.78 14.85L204.78 27L199.65 27L199.65 15.74Q199.65 13.96 198.74 12.95Q197.82 11.94 196.20 11.94L196.20 11.94Q195.12 11.94 194.28 12.41Q193.43 12.88 192.96 13.77Q192.49 14.66 192.49 15.94Z"/></g>
        
      </svg>
    